<?xml version="1.0" encoding="utf-8"?>
<!-- Generator: Adobe Illustrator 23.0.1, SVG Export Plug-In . SVG Version: 6.00 Build 0)  -->
<svg version="1.1" xmlns="http://www.w3.org/2000/svg" xmlns:xlink="http://www.w3.org/1999/xlink" x="0px" y="0px"
	 viewBox="0 0 288 48.5" style="enable-background:new 0 0 288 48.5;" xml:space="preserve">
<g id="Layer_1">
	<g>
		<g>
			<defs>
				<rect id="SVGID_1_" y="-104" width="288" height="288"/>
			</defs>
			<clipPath id="SVGID_2_">
				<use xlink:href="#SVGID_1_"  style="overflow:visible;"/>
			</clipPath>
			<g style="clip-path:url(#SVGID_2_);">
				<g>
					
						<image style="overflow:visible;opacity:0.5;" width="1399" height="710" xlink:href="BB4E1126B94EC6C5.png"  transform="matrix(0.24 0 0 0.24 -14.6734 -118.6734)">
					</image>
					<g>
						<path style="fill:#4ED3F6;" d="M291.6-104v82.7c-67.5-55.6-47.8,5.1-88.1,35.7C161,46.9,162-34.1,148.9-6.8
							c-13.2,27.3-41.5,24.3-63.8,5.1s-37.5,20.3-52.7-1C24.1-14.4,10.5-13.6,0-10.4V-104H291.6z"/>
					</g>
				</g>
				<g>
					
						<image style="overflow:visible;opacity:0.5;" width="1399" height="529" xlink:href="BB4E1126B94EC6C7.png"  transform="matrix(0.24 0 0 0.24 -14.6734 -58.6734)">
					</image>
					<g>
						<path style="fill:#0480D6;" d="M291.6-21.3V4.4c-20.7-2.3-41,12.5-73.2,27.7c-54.7,25.7-58.7-31-70.9-16.9
							s-41.9,16.2-64.8-2.7c-23-18.9-33.1,17.5-56-4.1C16.8-0.9,7.5-0.9,0,2v-12.4c10.5-3.1,24.1-4,32.4,7.7
							c15.2,21.3,30.4-18.2,52.7,1s50.6,22.3,63.8-5.1C162-34.1,161,46.9,203.5,14.5C243.8-16.2,224.2-76.9,291.6-21.3z"/>
					</g>
				</g>
				<g>
					
						<image style="overflow:visible;opacity:0.5;" width="1399" height="426" xlink:href="BB4E1126B94EC6C2.png"  transform="matrix(0.24 0 0 0.24 -14.6734 -14.5134)">
					</image>
					<g>
						<path style="fill:#0B3D86;" d="M291.6,4.4v23.9c-21.5-4.2-47.8,14.1-76.6,26c-42.5,17.6-43.2-29.7-81.7-13.5
							C94.9,57,75.3,19.2,71.2,26.6c-4.1,7.4-17.5,15.5-45.9,0c-10.7-5.8-19-4.2-25.3,0V2c7.5-2.9,16.8-2.9,26.7,6.4
							c23,21.6,33.1-14.9,56,4.1c22.9,18.9,52.7,16.9,64.8,2.7s16.2,42.5,70.9,16.9C250.6,16.9,270.9,2,291.6,4.4z"/>
					</g>
				</g>
				<g>
					
						<image style="overflow:visible;opacity:0.5;" width="1399" height="476" xlink:href="BB4E1126B94EC6C3.png"  transform="matrix(0.24 0 0 0.24 -14.6734 8.0466)">
					</image>
					<g>
						<path style="fill:#14D2E0;" d="M291.6,28.3v27.1c-4,2.1-8.4,5-13.2,9c-72.2,60.1-99.9,8.8-123.5-7.4
							c-23.6-16.2-55.4,14.9-70.2-4.7c-14.9-19.6-20.3,12.2-50-6.1C18.7,36.4,7.2,44.5,0,54V26.7c6.3-4.3,14.7-5.9,25.3,0
							c28.4,15.5,41.9,7.4,45.9,0c4.1-7.4,23.6,30.4,62.1,14.2c38.5-16.2,39.1,31.1,81.7,13.5C243.8,42.4,270.1,24.1,291.6,28.3z"/>
					</g>
				</g>
				<g>
					
						<image style="overflow:visible;opacity:0.5;" width="1399" height="792" xlink:href="BB4E1126B94EC6CD.png"  transform="matrix(0.24 0 0 0.24 -14.6734 27.0066)">
					</image>
					<g>
						<path style="fill:#FFFFFF;" d="M291.6,55.4v132.2H0V54c7.2-9.5,18.7-17.6,34.8-7.8c29.7,18.2,35.1-13.5,50,6.1
							c14.8,19.6,46.6-11.5,70.2,4.7c23.6,16.2,51.3,67.5,123.5,7.4C283.3,60.4,287.7,57.5,291.6,55.4z"/>
					</g>
				</g>
			</g>
		</g>
	</g>
</g>
<g id="Layer_2">
	<rect y="-14" style="fill:none;" width="288" height="85.5"/>
</g>
</svg>
